<?xml version="1.0" standalone="no"?><!DOCTYPE svg PUBLIC "-//W3C//DTD SVG 1.1//EN" "http://www.w3.org/Graphics/SVG/1.1/DTD/svg11.dtd"><svg t="1756379268714" class="icon" viewBox="0 0 1024 1024" version="1.1" xmlns="http://www.w3.org/2000/svg" p-id="1406" data-darkreader-inline-fill="" xmlns:xlink="http://www.w3.org/1999/xlink" width="200" height="200"><path d="M249.002667 791.381333A163.029333 163.029333 0 0 1 212.309333 469.333333 194.346667 194.346667 0 0 1 404.053333 315.733333a196.522667 196.522667 0 0 1 190.549334 149.333334h10.666666a163.370667 163.370667 0 0 1 0 326.698666z m12.8-278.186666c0 4.736-1.194667 5.973333-5.930667 5.973333l-17.792 2.346667a106.666667 106.666667 0 0 0 10.709333 213.034666h356.266667a106.666667 106.666667 0 1 0 0-213.034666h-53.034667a5.589333 5.589333 0 0 1-5.930666-5.930667l-2.346667-18.944a140.501333 140.501333 0 0 0-279.381333 0zM785.066667 364.074667a177.578667 177.578667 0 0 0-170.453334-131.456 175.701333 175.701333 0 0 0-133.76 60.416c-3.541333 3.541333-2.346667 7.125333 2.346667 8.277333a275.584 275.584 0 0 1 41.472 21.333333 6.912 6.912 0 0 0 8.277333-1.152 120.661333 120.661333 0 0 1 81.664-33.152 118.485333 118.485333 0 0 1 118.4 107.690667l3.498667 24.874667h54.485333a90.154667 90.154667 0 0 1 9.472 179.882666 5.632 5.632 0 0 0-5.930666 5.973334v43.776a5.589333 5.589333 0 0 0 5.930666 5.930666 146.304 146.304 0 0 0-9.472-292.352z" fill="#1B1B1F" p-id="1407" style="--darkreader-inline-fill: var(--darkreader-background-1b1b1f, #161819);" data-darkreader-inline-fill=""></path></svg>