<?xml version="1.0" standalone="no"?><!DOCTYPE svg PUBLIC "-//W3C//DTD SVG 1.1//EN" "http://www.w3.org/Graphics/SVG/1.1/DTD/svg11.dtd"><svg t="1756379318256" class="icon" viewBox="0 0 1024 1024" version="1.1" xmlns="http://www.w3.org/2000/svg" p-id="1740" data-darkreader-inline-fill="" xmlns:xlink="http://www.w3.org/1999/xlink" width="200" height="200"><path d="M689.066667 320.853333A209.792 209.792 0 0 0 512 414.933333a209.792 209.792 0 0 0-177.066667-93.866666A200.021333 200.021333 0 0 0 128 512.597333a200.021333 200.021333 0 0 0 206.933333 191.744A209.792 209.792 0 0 0 512 610.133333a209.792 209.792 0 0 0 177.066667 93.866667A200.021333 200.021333 0 0 0 896 512.597333a200.021333 200.021333 0 0 0-206.933333-191.744z m-354.133334 321.792a139.605333 139.605333 0 0 1-147.2-130.048 139.605333 139.605333 0 0 1 147.2-130.048 139.605333 139.605333 0 0 1 147.2 130.048 139.605333 139.605333 0 0 1-147.2 130.048z m354.133334 0a139.605333 139.605333 0 0 1-147.2-130.048 139.605333 139.605333 0 0 1 147.2-130.048 139.605333 139.605333 0 0 1 147.2 130.048 139.605333 139.605333 0 0 1-147.2 130.048z" fill="#1B1B1F" p-id="1741" style="--darkreader-inline-fill: var(--darkreader-background-1b1b1f, #161819);" data-darkreader-inline-fill=""></path><path d="M202.581333 223.530667m-31.914666 0a31.914667 31.914667 0 1 0 63.829333 0 31.914667 31.914667 0 1 0-63.829333 0Z" fill="#1B1B1F" p-id="1742" style="--darkreader-inline-fill: var(--darkreader-text-1b1b1f, #d6d2cd);" data-darkreader-inline-fill=""></path><path d="M512 223.530667m-31.914667 0a31.914667 31.914667 0 1 0 63.829334 0 31.914667 31.914667 0 1 0-63.829334 0Z" fill="#1B1B1F" p-id="1743" style="--darkreader-inline-fill: var(--darkreader-text-1b1b1f, #d6d2cd);" data-darkreader-inline-fill=""></path><path d="M821.418667 223.530667m-31.914667 0a31.914667 31.914667 0 1 0 63.829333 0 31.914667 31.914667 0 1 0-63.829333 0Z" fill="#1B1B1F" p-id="1744" style="--darkreader-inline-fill: var(--darkreader-text-1b1b1f, #d6d2cd);" data-darkreader-inline-fill=""></path><path d="M202.581333 800.384m-31.914666 0a31.914667 31.914667 0 1 0 63.829333 0 31.914667 31.914667 0 1 0-63.829333 0Z" fill="#1B1B1F" p-id="1745" style="--darkreader-inline-fill: var(--darkreader-text-1b1b1f, #d6d2cd);" data-darkreader-inline-fill=""></path><path d="M512 800.384m-31.914667 0a31.914667 31.914667 0 1 0 63.829334 0 31.914667 31.914667 0 1 0-63.829334 0Z" fill="#1B1B1F" p-id="1746" style="--darkreader-inline-fill: var(--darkreader-text-1b1b1f, #d6d2cd);" data-darkreader-inline-fill=""></path><path d="M821.418667 800.384m-31.914667 0a31.914667 31.914667 0 1 0 63.829333 0 31.914667 31.914667 0 1 0-63.829333 0Z" fill="#1B1B1F" p-id="1747" style="--darkreader-inline-fill: var(--darkreader-text-1b1b1f, #d6d2cd);" data-darkreader-inline-fill=""></path></svg>