<?xml version="1.0" standalone="no"?><!DOCTYPE svg PUBLIC "-//W3C//DTD SVG 1.1//EN" "http://www.w3.org/Graphics/SVG/1.1/DTD/svg11.dtd"><svg t="1756379300462" class="icon" viewBox="0 0 1024 1024" version="1.1" xmlns="http://www.w3.org/2000/svg" p-id="1573" data-darkreader-inline-fill="" xmlns:xlink="http://www.w3.org/1999/xlink" width="200" height="200"><path d="M712.277333 607.061333a6.272 6.272 0 0 1 6.656-6.656 120.490667 120.490667 0 0 0-6.656-240.853333h-59.733333a6.314667 6.314667 0 0 1-6.698667-6.656l-2.645333-21.333333a159.36 159.36 0 0 0-157.056-141.056 157.397333 157.397333 0 0 0-157.013333 141.056l-2.645334 19.968a6.272 6.272 0 0 1-6.656 6.613333l-19.925333 1.365333a120.789333 120.789333 0 0 0 5.290667 240.853334 6.272 6.272 0 0 1 6.656 6.656v49.237333a6.272 6.272 0 0 1-6.656 6.656 183.466667 183.466667 0 0 1-35.925334-361.984 221.397333 221.397333 0 0 1 431.146667-3.968h11.989333a183.04 183.04 0 0 1 6.656 365.952 6.272 6.272 0 0 1-6.656-6.656z m-324.693333-101.162666a31.829333 31.829333 0 0 1 61.226667 17.322666L375.466667 790.698667a31.232 31.232 0 0 1-30.592 23.936c-2.645333 0-5.290667-1.322667-8.021334-1.322667a32.512 32.512 0 0 1-22.613333-38.613333z m250.197333 0a31.146667 31.146667 0 1 1 59.733334 17.322666l-73.216 267.477334a29.866667 29.866667 0 0 1-29.226667 23.936l-9.344-1.322667a31.658667 31.658667 0 0 1-21.333333-38.613333z m-168.874666 160.725333a31.146667 31.146667 0 1 1 59.733333 17.322667l-9.301333 37.205333a29.866667 29.866667 0 0 1-38.4 22.613333 32.469333 32.469333 0 0 1-22.613334-38.4z m-40.448 151.125333a31.146667 31.146667 0 0 1 59.733333 17.322667l-9.301333 37.205333a29.866667 29.866667 0 0 1-38.4 22.613334 32.426667 32.426667 0 0 1-22.656-38.4z m85.546666-311.850666a31.189333 31.189333 0 0 1 59.733334 17.28l-9.301334 37.248a28.373333 28.373333 0 0 1-38.613333 22.570666 32.426667 32.426667 0 0 1-22.570667-38.4z" fill="#1B1B1F" p-id="1574" style="--darkreader-inline-fill: var(--darkreader-background-1b1b1f, #161819);" data-darkreader-inline-fill=""></path></svg>