<?xml version="1.0" standalone="no"?><!DOCTYPE svg PUBLIC "-//W3C//DTD SVG 1.1//EN" "http://www.w3.org/Graphics/SVG/1.1/DTD/svg11.dtd"><svg t="1756288730415" class="icon" viewBox="0 0 1024 1024" version="1.1" xmlns="http://www.w3.org/2000/svg" p-id="6245" xmlns:xlink="http://www.w3.org/1999/xlink" width="200" height="200"><path d="M1024 514.368c0-74.432-98.752-128-232-158.08 8.128-24.96 15.104-49.216 20.224-72.32 24.064-107.584 11.392-179.648-36.48-208.384-65.792-39.488-166.4 22.208-263.68 126.464C414.72 97.792 314.176 36.096 248.384 75.584c-47.872 28.736-60.48 100.8-36.48 208.384 5.12 23.04 12.096 47.36 20.288 72.32C98.88 386.688 0.192 439.936 0.192 514.368s98.752 128 232 158.144c-8.192 24.96-15.168 49.28-20.288 72.384-24 107.584-11.392 179.648 36.48 208.448a86.144 86.144 0 0 0 45.184 12.032c62.208 0 141.376-56 218.496-138.624 77.184 82.56 156.288 138.624 218.624 138.624a86.528 86.528 0 0 0 44.8-12.032c64-38.4 58.688-150.656 15.872-280.768C925.056 642.24 1024 588.864 1024 514.368z m-293.504-400.256a36.608 36.608 0 0 1 19.2 4.736c25.6 15.488 31.04 74.624 13.248 154.176a726.72 726.72 0 0 1-20.672 73.216 1268.736 1268.736 0 0 0-126.528-15.296c-22.592-32-46.272-62.72-70.4-91.2 77.632-83.392 146.176-125.632 185.216-125.632z m-34.24 454.4c10.752 22.848 20.032 44.8 28.416 66.048-22.912 3.904-47.104 7.168-72.832 9.728 7.104-11.136 14.08-22.272 20.8-33.536 8.64-13.888 15.744-28.032 23.616-42.112z m-66.816 16.32c-13.824 22.976-27.776 43.584-41.664 64-24.448 1.28-49.472 2.176-75.776 2.176s-51.2-0.896-75.712-2.176c-13.952-20.608-27.904-41.216-41.728-64s-27.008-47.104-39.36-70.4c12.352-23.424 25.216-47.04 39.36-70.4s27.584-43.84 41.408-64c24.512-1.28 49.6-2.176 76.032-2.176s51.584 0.896 76.032 2.176c13.888 20.48 27.712 41.408 41.408 64 14.464 24.064 27.392 47.424 39.488 70.4-12.288 23.296-25.216 46.976-39.424 70.528z m-78.784 116.16c-12.8 17.408-25.6 34.496-38.4 49.728-12.8-15.232-25.6-32.384-38.4-49.728 12.8 0.384 25.6 0.64 38.4 0.64s25.536 0.128 38.464-0.448z m-199.424-90.24q10.176 16.832 20.8 33.536c-25.6-2.56-49.408-5.824-72.192-9.6 8.448-21.44 17.92-43.136 28.288-65.408 7.552 14.016 14.912 27.84 23.168 41.6z m-23.04-151.616c-10.432-22.144-19.84-43.904-28.288-65.408 22.784-3.84 46.848-7.104 72.384-9.664-7.168 11.2-14.208 22.336-20.992 33.6-8.256 14.016-15.616 28.096-23.04 41.664z m144.96-131.776q19.584-26.24 38.848-49.216 19.2 22.976 38.912 49.216c-12.8-0.384-25.984-0.64-38.912-0.64s-25.92 0.448-38.848 0.832z m199.552 90.24c-6.784-11.264-13.824-22.4-20.928-33.6 25.6 2.56 49.536 5.888 72.384 9.664a1230.72 1230.72 0 0 1-27.904 64.576q-11.456-20.288-23.552-40.384z m-411.712-144.64c-17.728-79.552-12.8-138.688 13.312-154.176a36.416 36.416 0 0 1 19.2-4.736c39.104 0 107.584 42.24 185.152 125.632-24.192 28.48-47.744 59.136-70.4 91.2a1270.016 1270.016 0 0 0-126.592 15.296c-8.448-25.408-15.424-49.92-20.672-73.216zM50.496 514.368c0-36.608 72.32-82.496 199.296-110.72 13.888 36.096 29.76 73.024 48.768 110.72-19.2 37.76-34.88 74.624-48.768 110.72C122.752 596.864 50.496 550.976 50.496 514.368z m224 395.712c-25.984-15.616-31.04-74.688-13.312-154.24a741.76 741.76 0 0 1 20.736-73.28 1267.2 1267.2 0 0 0 126.464 15.296c22.528 32 46.08 62.464 70.4 90.816-92.8 99.136-172.288 140.672-204.48 121.408z m475.52 0c-32.384 19.2-111.872-22.272-204.096-121.6a1346.56 1346.56 0 0 0 70.4-90.816 1262.592 1262.592 0 0 0 126.336-15.296c40.512 123.392 38.464 208.832 7.104 227.712z m24.96-284.992a1268.48 1268.48 0 0 0-49.152-110.656c19.2-37.76 34.816-74.624 48.704-110.72 126.976 28.224 199.36 74.112 199.36 110.72s-72.448 82.304-199.168 110.528z" fill="#8A8A8A" p-id="6246"></path></svg>