<?xml version="1.0" standalone="no"?><!DOCTYPE svg PUBLIC "-//W3C//DTD SVG 1.1//EN" "http://www.w3.org/Graphics/SVG/1.1/DTD/svg11.dtd"><svg t="1756286436698" class="icon" viewBox="0 0 1169 1024" version="1.1" xmlns="http://www.w3.org/2000/svg" p-id="4539" xmlns:xlink="http://www.w3.org/1999/xlink" width="228.3203125" height="200"><path d="M1078.88789 525.429653c31.877427-78.295436 34.11444-166.098175 6.151784-246.07137-3.914772-11.744315-16.777593-17.8961-28.521909-13.981328-11.744315 3.914772-17.8961 16.777593-13.981327 28.521909 38.588465 110.732116 9.507303 234.327054-73.821411 316.537262-1.118506-2.796266-2.796266-5.592531-5.033278-7.270291-48.095768-49.214274-118.56166-125.83195-177.283237-213.075436-62.636349-92.836017-114.646888-196.857096-147.083569-267.322988-1.677759-3.355519-4.474025-6.711037-7.27029-8.94805 48.655021-21.251618 102.34332-29.640415 154.913112-24.047884 12.303568 1.118506 23.488631-7.829544 24.607137-20.133112s-7.829544-23.488631-20.133112-24.607137c-192.383071-20.692365-365.192283 118.56166-385.884648 310.385478-1.118506 10.066556-1.677759 20.133112-1.67776 30.758921l-299.759668 31.877428c-12.303568 1.118506-21.251618 12.303568-19.573859 24.607137 0.559253 3.355519 1.118506 6.151784 2.796265 8.94805 4.474025 7.829544 12.862822 12.303568 21.810872 11.185062l296.40415-31.877428c5.592531 50.33278 21.810871 98.987801 48.095767 142.609544l-318.774274 213.075436c-10.066556 6.711037-12.862822 20.692365-6.151784 31.318175 6.711037 10.066556 20.692365 13.422075 30.758921 6.151784l319.333528-213.634689c37.469959 47.536515 86.684233 85.006473 143.168797 107.935851l0.559253 0.559253-120.798673 273.474772c-5.033278 11.185062 0 24.607137 11.744316 29.640415 11.185062 5.033278 24.607137 0 29.640415-11.185062l123.035684-277.389544c28.521909 7.27029 57.603071 11.185062 87.243486 11.185062 143.72805-0.559253 271.797013-87.243486 325.485312-219.22722z m-481.51693-393.154939c0 3.355519 0.559253 6.151784 1.677759 8.94805 32.995934 72.143652 86.124979 178.401743 150.439087 274.034025 54.247552 78.295436 115.206141 152.116847 182.875768 219.786474 1.677759 1.677759 2.796266 2.796266 5.033278 3.355518-24.607137 18.455353-52.01054 32.995934-81.650954 43.621743-43.06249-43.621743-122.476432-129.187469-187.349793-225.379004-61.517842-91.158257-111.29137-191.264565-142.050291-259.493445-0.559253-1.118506-1.118506-2.237012-2.237012-3.355518 21.810871-24.607137 46.418008-45.299502 73.262158-61.517843z m-79.973196 453.554275l56.484565-37.469959c10.066556-6.711037 12.862822-20.692365 6.151784-31.318174-6.711037-10.066556-20.692365-13.422075-30.758921-6.151784L492.231374 548.918283c-48.095768-81.650955-55.925311-181.757262-20.133112-269.56 6.151784-15.659087 13.981328-30.758921 22.929378-45.299502 31.877427 68.788133 78.854689 162.183403 137.017013 247.749129 52.569793 75.49917 110.732116 147.083569 174.486971 213.634689-17.336847 2.796266-34.673693 4.474025-52.01054 4.474025-92.276764-0.559253-178.960996-42.503237-237.12332-114.087635z" fill="#495FA9" p-id="4540"></path><path d="M871.404985 111.023096c52.01054 22.929378 96.191535 59.840083 128.068963 106.817344 7.27029 10.066556 20.692365 12.862822 31.318174 5.592532s12.862822-20.692365 5.592531-31.318175c-36.910705-53.688299-87.802739-96.191535-147.083568-122.476432-11.185062-5.033278-24.607137 0-29.640415 11.744316s0.559253 24.607137 11.744315 29.640415zM1159.420338 787.719363c-17.336847-6.711037-35.232946-15.099834-43.06249-23.488631s-16.21834-26.844149-22.929377-44.180996c-2.796266-7.829544-11.185062-11.744315-18.455353-8.94805-3.914772 1.677759-7.27029 5.033278-8.94805 8.94805-6.151784 17.336847-14.540581 35.232946-22.370124 43.621743s-26.284896 16.777593-43.621743 24.047884c-7.829544 3.355519-11.744315 11.744315-8.388797 19.573859 1.677759 3.914772 4.474025 6.711037 8.388797 8.388796 16.21834 6.151784 32.995934 13.981328 40.825477 21.810872 8.94805 8.94805 17.8961 29.081162 24.607137 47.536514 2.796266 7.829544 11.185062 11.744315 18.455353 8.94805 4.474025-1.677759 7.829544-5.033278 8.94805-8.94805 6.711037-18.455353 15.659087-37.469959 24.047884-46.418008s25.16639-16.21834 42.503236-22.929378c7.829544-2.796266 11.744315-11.744315 8.94805-19.573859-2.237012-3.355519-5.033278-6.711037-8.94805-8.388796zM297.611291 135.07098c10.066556 3.355519 19.573859 8.388797 27.962656 15.099834 6.151784 6.151784 12.303568 20.133112 17.336846 32.995933 1.677759 5.033278 7.27029 7.829544 12.862822 6.151785 2.796266-1.118506 5.592531-3.355519 6.151784-6.151785 4.474025-12.862822 10.625809-26.284896 16.21834-32.43668 8.388797-7.27029 18.455353-12.303568 29.081162-15.659087 5.592531-2.237012 7.829544-8.388797 5.592531-13.981328-1.118506-2.796266-3.355519-4.474025-5.592531-5.592531-10.625809-3.355519-20.692365-8.94805-29.640415-16.218341-6.711037-9.507303-12.303568-19.573859-15.659087-30.758921-1.677759-5.033278-7.829544-7.829544-12.862822-6.151784-2.796266 1.118506-5.033278 3.355519-6.151784 6.151784-3.355519 11.185062-8.388797 21.251618-15.099834 30.199668-8.94805 7.27029-19.014606 12.862822-30.199668 16.777594-5.592531 2.237012-7.829544 8.94805-5.033278 13.981328 0.559253 2.796266 2.237012 5.033278 5.033278 5.592531zM988.848139 51.183013c6.711037 2.237012 13.422075 5.592531 19.014606 10.625809 5.033278 7.27029 8.94805 14.540581 11.744315 22.929377 1.118506 3.355519 5.033278 5.592531 8.388797 4.474025 2.237012-0.559253 3.914772-2.237012 4.474025-4.474025 2.237012-7.829544 6.151784-15.659087 11.185062-22.370124 5.592531-5.033278 12.862822-8.94805 20.133112-11.185062 3.914772-1.677759 5.592531-6.151784 3.914772-10.066556-0.559253-1.677759-2.237012-2.796266-3.914772-3.914772-7.27029-2.237012-13.981328-6.151784-20.133112-11.185062-4.474025-6.711037-8.388797-13.981328-10.625809-21.251619-1.118506-3.355519-5.033278-5.592531-8.388797-4.474025-2.237012 0.559253-3.914772 2.237012-4.474025 4.474025-2.237012 7.829544-5.592531 14.540581-10.625809 21.251619-6.151784 5.033278-12.862822 8.94805-20.692365 11.744315-3.914772 1.677759-5.592531 6.151784-3.914772 10.066556 0.559253 1.677759 2.237012 2.796266 3.914772 3.355519zM79.502577 630.569238c-7.27029-2.237012-13.981328-6.151784-20.133112-11.185062-5.033278-6.711037-8.388797-13.981328-10.625809-21.251619-1.118506-3.355519-5.033278-5.592531-8.388797-4.474025-2.237012 0.559253-3.914772 2.237012-4.474025 4.474025-2.237012 7.829544-5.592531 14.540581-10.625809 21.251619-6.151784 5.033278-12.862822 8.94805-20.692365 11.744315-3.914772 1.677759-5.592531 6.151784-3.914772 10.066556 0.559253 1.677759 2.237012 2.796266 3.914772 3.914772 7.27029 2.237012 13.422075 5.592531 19.014606 10.625809 5.033278 7.27029 8.94805 14.540581 11.744315 22.929378 1.118506 3.355519 5.033278 5.592531 8.388797 4.474024 2.237012-0.559253 3.914772-2.237012 4.474024-4.474024 2.237012-7.829544 6.151784-15.659087 11.185063-22.370125 5.592531-5.033278 12.862822-8.94805 20.133112-11.185062 3.914772-1.677759 5.033278-6.151784 3.355518-10.066556-0.559253-2.237012-1.677759-3.914772-3.355518-4.474025zM481.046312 811.207993c-6.151784 0-11.185062 5.033278-11.185062 11.185063s5.033278 11.185062 11.185062 11.185062 11.185062-5.033278 11.185062-11.185062-5.033278-11.185062-11.185062-11.185063zM889.301085 772.060275c-12.303568 0-22.370125 10.066556-22.370125 22.370125s10.066556 22.370125 22.370125 22.370125 22.370125-10.066556 22.370124-22.370125-10.066556-22.370125-22.370124-22.370125z" fill="#495FA9" p-id="4541"></path><path d="M553.749217 56.216291m-16.777594 0a16.777593 16.777593 0 1 0 33.555187 0 16.777593 16.777593 0 1 0-33.555187 0Z" fill="#495FA9" p-id="4542"></path><path d="M232.178677 285.510067c7.829544 0 13.981328-6.151784 13.981328-13.981328S240.00822 257.547411 232.178677 257.547411 218.197349 263.699196 218.197349 271.528739s6.151784 13.981328 13.981328 13.981328z" fill="#495FA9" p-id="4543"></path></svg>